<svg width="40" height="40" viewBox="0 0 40 40" fill="none" xmlns="http://www.w3.org/2000/svg">
<path d="M15.8468 12.846H24.154V26.3837H15.8468V12.846Z" fill="#FF5F00"/>
<path d="M16.8244 19.6149C16.8247 18.3119 17.1243 17.0258 17.7007 15.853C18.2772 14.6802 19.1155 13.6511 20.153 12.8426C18.8628 11.8434 17.3131 11.222 15.6811 11.0493C14.0492 10.8766 12.4009 11.1597 10.9245 11.8661C9.44822 12.5725 8.2035 13.6738 7.33266 15.0441C6.46182 16.4144 6 17.9983 6 19.6149C6 21.2315 6.46182 22.8154 7.33266 24.1857C8.2035 25.556 9.44822 26.6573 10.9245 27.3637C12.4009 28.0701 14.0492 28.3532 15.6811 28.1805C17.3131 28.0078 18.8628 27.3864 20.153 26.3872C19.1155 25.5787 18.2772 24.5496 17.7007 23.3768C17.1243 22.204 16.8247 20.9179 16.8244 19.6149Z" fill="#EB001B"/>
<path d="M33.9986 19.6149C33.9997 21.2308 33.5488 22.8143 32.6974 24.1845C31.846 25.5546 30.6284 26.656 29.184 27.3628C27.7396 28.0695 26.1267 28.353 24.5296 28.1808C22.9326 28.0086 21.416 27.3877 20.1532 26.3891C21.1695 25.5806 21.9906 24.5512 22.5552 23.378C23.1197 22.2048 23.413 20.9183 23.413 19.6149C23.413 18.3115 23.1197 17.025 22.5552 15.8518C21.9906 14.6786 21.1695 13.6492 20.1532 12.8407C21.416 11.8421 22.9326 11.2212 24.5296 11.049C26.1267 10.8768 27.7396 11.1603 29.184 11.867C30.6284 12.5738 31.846 13.6752 32.6974 15.0453C33.5488 16.4155 33.9997 17.999 33.9986 19.6149Z" fill="#F79E1B"/>
</svg>
