<svg width="40" height="40" viewBox="0 0 40 40" fill="none" xmlns="http://www.w3.org/2000/svg">
<path d="M15.25 24.6387L16.8726 15.193H19.4679L17.8442 24.6387H15.25ZM27.2207 15.3967C26.7066 15.2054 25.9009 15 24.8946 15C22.3301 15 20.5237 16.2811 20.5083 18.1172C20.4939 19.4744 21.7979 20.2316 22.7824 20.6834C23.7927 21.1465 24.1323 21.4417 24.1274 21.8551C24.1209 22.4883 23.3207 22.7774 22.5746 22.7774C21.5359 22.7774 20.9841 22.6343 20.1317 22.2817L19.7972 22.1315L19.433 24.246C20.0392 24.5098 21.1601 24.7381 22.324 24.75C25.0522 24.75 26.8233 23.4835 26.8435 21.5228C26.8531 20.4483 26.1617 19.6306 24.6643 18.9565C23.7572 18.5195 23.2016 18.2279 23.2075 17.7855C23.2075 17.3928 23.6778 16.973 24.6939 16.973C25.5425 16.9599 26.1574 17.1435 26.6364 17.3349L26.8689 17.4439L27.2207 15.3967ZM33.8993 15.193H31.8939C31.2726 15.193 30.8077 15.3612 30.5349 15.9763L26.6805 24.6325H29.4058C29.4058 24.6325 29.8513 23.4687 29.9521 23.2131C30.2499 23.2131 32.8975 23.2171 33.276 23.2171C33.3536 23.5478 33.5917 24.6325 33.5917 24.6325H36L33.8993 15.193ZM30.7175 21.2922C30.9322 20.748 31.7516 18.6518 31.7516 18.6518C31.7363 18.6769 31.9646 18.1049 32.0956 17.7502L32.2711 18.5646C32.2711 18.5646 32.768 20.8193 32.8719 21.2921H30.7175V21.2922Z" fill="#134CD8"/>
<path d="M4.03281 15.25L4 15.4428C5.01479 15.6844 5.92114 16.0342 6.71467 16.4693L8.99249 24.5L11.7086 24.4971L15.75 15.25H13.0305L10.5173 21.5679L10.2497 20.2839C10.2369 20.244 10.2235 20.2042 10.2095 20.1647L9.33585 16.0322C9.18046 15.4455 8.72981 15.2704 8.17226 15.25H4.03281V15.25Z" fill="#134CD8"/>
</svg>

