<svg width="32" height="32" viewBox="0 0 32 32" fill="none" xmlns="http://www.w3.org/2000/svg">
<path d="M11.25 20.6387L12.8726 11.193H15.4679L13.8442 20.6387H11.25ZM23.2207 11.3967C22.7066 11.2054 21.9009 11 20.8946 11C18.3301 11 16.5237 12.2811 16.5083 14.1172C16.4939 15.4744 17.7979 16.2316 18.7824 16.6834C19.7927 17.1465 20.1323 17.4417 20.1274 17.8551C20.1209 18.4883 19.3207 18.7774 18.5746 18.7774C17.5359 18.7774 16.9841 18.6343 16.1317 18.2817L15.7972 18.1315L15.433 20.246C16.0392 20.5098 17.1601 20.7381 18.324 20.75C21.0522 20.75 22.8233 19.4835 22.8435 17.5228C22.8531 16.4483 22.1617 15.6306 20.6643 14.9565C19.7572 14.5195 19.2016 14.2279 19.2075 13.7855C19.2075 13.3928 19.6778 12.973 20.6939 12.973C21.5425 12.9599 22.1574 13.1435 22.6364 13.3349L22.8689 13.4439L23.2207 11.3967ZM29.8993 11.193H27.8939C27.2726 11.193 26.8077 11.3612 26.5349 11.9763L22.6805 20.6325H25.4058C25.4058 20.6325 25.8513 19.4687 25.9521 19.2131C26.2499 19.2131 28.8975 19.2171 29.276 19.2171C29.3536 19.5478 29.5917 20.6325 29.5917 20.6325H32L29.8993 11.193ZM26.7175 17.2922C26.9322 16.748 27.7516 14.6518 27.7516 14.6518C27.7363 14.6769 27.9646 14.1049 28.0956 13.7502L28.2711 14.5646C28.2711 14.5646 28.768 16.8193 28.8719 17.2921H26.7175V17.2922Z" fill="#134CD8"/>
<path d="M0.0328113 11.25L0 11.4428C1.01479 11.6844 1.92114 12.0342 2.71467 12.4693L4.99249 20.5L7.70855 20.4971L11.75 11.25H9.03052L6.51734 17.5679L6.24966 16.2839C6.23689 16.244 6.22352 16.2042 6.20953 16.1647L5.33585 12.0322C5.18046 11.4455 4.72981 11.2704 4.17226 11.25H0.0328113V11.25Z" fill="#134CD8"/>
</svg>
